<svg xmlns="http://www.w3.org/2000/svg" aria-hidden="true" style="position:absolute;width:0;height:0;overflow:hidden">
  <defs>
    <symbol id="icon-close-menu" viewBox="0 0 32 32">
      <path stroke-linecap="round" stroke-linejoin="round" stroke-width="3" d="M24 8 8 24M8 8l16 16"/>
    </symbol>
    <symbol id="icon-logo" viewBox="0 0 32 32">
      <path d="M29.082.314h-4.009c-1.237 0-2.24.983-2.24 2.195v3.929c0 1.212 1.003 2.195 2.24 2.195h4.009c1.237 0 2.24-.983 2.24-2.195V2.509c0-1.212-1.003-2.195-2.24-2.195zM6.73 23.04H2.412C1.08 23.04 0 24.023 0 25.235v3.929c0 1.212 1.08 2.195 2.412 2.195H6.73c1.332 0 2.412-.983 2.412-2.195v-3.929c0-1.212-1.08-2.195-2.412-2.195zM6.25 11.582H2.241c-1.237 0-2.24.983-2.24 2.195v3.929c0 1.212 1.003 2.195 2.24 2.195H6.25c1.237 0 2.24-.983 2.24-2.195v-3.929c0-1.212-1.003-2.195-2.24-2.195zM17.766 22.978h-4.009c-1.237 0-2.24.983-2.24 2.195v3.929c0 1.212 1.003 2.195 2.241 2.195h4.009c1.237 0 2.24-.983 2.24-2.195v-3.929c0-1.212-1.003-2.195-2.24-2.195zM6.25.086H2.241c-1.237 0-2.24.983-2.24 2.195V6.21c0 1.212 1.003 2.195 2.24 2.195H6.25c1.237 0 2.24-.983 2.24-2.195V2.281C8.49 1.069 7.487.086 6.25.086zM18.076 11.697h-4.009c-1.237 0-2.24.983-2.24 2.195v3.929c0 1.212 1.003 2.195 2.24 2.195h4.009c1.237 0 2.24-.983 2.24-2.195v-3.929c0-1.212-1.003-2.195-2.24-2.195zM29.333 22.978h-4.009c-1.237 0-2.24.983-2.24 2.195v3.929c0 1.212 1.003 2.195 2.24 2.195h4.009c1.237 0 2.24-.983 2.24-2.195v-3.929c0-1.212-1.003-2.195-2.24-2.195zM17.591.224h-4.009c-1.237 0-2.24.983-2.24 2.195v3.929c0 1.212 1.003 2.195 2.24 2.195h4.009c1.237 0 2.24-.984 2.24-2.196V2.418c0-1.212-1.003-2.195-2.24-2.195zM29.044 11.926h-4.009c-1.237 0-2.24.983-2.24 2.195v3.929c0 1.212 1.003 2.195 2.24 2.195h4.009c1.237 0 2.24-.983 2.24-2.195v-3.929c0-1.212-1.003-2.195-2.24-2.195z"/>
    </symbol>
    <svg id="logo-text" width="168" height="15" fill="none" xmlns="http://www.w3.org/2000/svg">
  <path d="M7.25 15C2.892 15 0 12.06 0 7.48 0 3 2.85 0 7.147 0c3.615 0 6.156 2.06 6.528 5.16h-2.996c-.289-1.78-1.673-2.78-3.532-2.78-2.603 0-4.152 2.04-4.152 5.1 0 3.36 1.735 5.14 4.255 5.14 2.19 0 3.595-1.2 3.74-3v-.2H6.96V7.18h6.817v1.84C13.654 12.6 11.05 15 7.25 15ZM15.584 14.8V.2h7.25c3.698 0 5.164 1.74 5.164 4.26 0 2.26-1.652 3.34-3.573 3.6v.06c1.239.3 1.797.96 2.313 2.26.661 1.64.765 3.6 1.611 4.3v.12h-3.305c-.702-.68-.867-2.82-1.239-4.12-.372-1.34-1.177-1.5-2.685-1.5h-2.644v5.62h-2.892Zm2.892-7.94h4.048c1.694 0 2.479-.96 2.479-2.2 0-1.36-.97-2.14-2.479-2.14h-4.048v4.34ZM29.919 14.8V.2h10.308v2.32H32.81V6h6.693v2.32H32.81v4.1h7.519v2.38H29.919ZM42.338 14.8V.2h10.307v2.32H45.23V6h6.692v2.32H45.23v4.1h7.519v2.38H42.338ZM54.757 14.8V.2h3.511l5 8.06c1.528 2.44 1.714 3.24 1.714 3.24h.062L65.002.2h2.892v14.6h-3.532l-5.185-8.3C58 4.62 57.69 3.48 57.69 3.48h-.041V14.8h-2.892ZM70.07 14.8v-2.96h3.016v2.96H70.07ZM75.257 14.8V.2h2.892v5.84h6.92V.2h2.892v14.6H85.07V8.36h-6.92v6.44h-2.892ZM89.197 14.8 94.981.2h3.14l5.866 14.6h-3.098l-1.219-3.36h-6.259l-1.219 3.36h-2.995Zm5.04-5.68h4.607L97.5 5.52c-.93-2.66-.95-3.14-.95-3.14h-.041s0 .48-.93 3.14l-1.343 3.6ZM105.219 14.8V.2h7.25c3.698 0 5.165 1.74 5.165 4.26 0 2.26-1.653 3.34-3.574 3.6v.06c1.239.3 1.797.96 2.314 2.26.661 1.64.764 3.6 1.611 4.3v.12h-3.305c-.703-.68-.868-2.82-1.24-4.12-.372-1.34-1.177-1.5-2.685-1.5h-2.644v5.62h-2.892Zm2.892-7.94h4.049c1.693 0 2.478-.96 2.478-2.2 0-1.36-.97-2.14-2.478-2.14h-4.049v4.34ZM122.62 14.8 117.084.2h3.099s2.995 8.18 3.305 9.18c.496 1.6.723 2.42.723 2.42h.041c-.02 0 .207-.82.723-2.42.331-1 3.202-9.18 3.202-9.18h2.995l-5.329 14.6h-3.223ZM132.356 14.8V.2h10.308v2.32h-7.416V6h6.693v2.32h-6.693v4.1h7.519v2.38h-10.411ZM149.947 15c-3.842 0-6.156-2.02-6.156-5.02h3.305c-.041 1.7 1.116 2.64 2.851 2.64 1.838 0 2.706-.7 2.706-1.74s-.744-1.48-3.388-2.18c-2.417-.64-5.061-1.4-5.061-4.4 0-2.38 2.149-4.3 5.536-4.3 3.491 0 5.722 1.9 5.722 4.58h-3.202c-.02-1.42-1.012-2.2-2.52-2.2-1.466 0-2.437.72-2.437 1.68 0 1.14.805 1.5 2.912 2.08 3.119.84 5.639 1.18 5.639 4.44 0 2.62-2.458 4.42-5.907 4.42ZM160.564 14.8V2.58h-4.565V.2H168v2.38h-4.544V14.8h-2.892Z" fill="#FBFBFB"/>
</svg>
    <symbol id="icon-menu" viewBox="0 0 42 32">
      <path stroke-linecap="round" stroke-linejoin="round" stroke-width="4.8" d="M3.733 3.2h34.133M3.733 16H20.8M3.733 28.8h34.133"/>
    </symbol>
    <symbol id="icon-green-harvest" viewBox="0 0 358 32">
<path d="M15.468 32c-9.298 0-15.468-6.272-15.468-16.043 0-9.557 6.081-15.957 15.247-15.957 7.712 0 13.132 4.395 13.925 11.008h-6.39c-0.617-3.797-3.569-5.931-7.535-5.931-5.552 0-8.857 4.352-8.857 10.88 0 7.168 3.702 10.965 9.078 10.965 4.671 0 7.668-2.56 7.976-6.4v-0.427h-8.593v-4.779h14.542v3.925c-0.265 7.637-5.817 12.757-13.925 12.757z"></path>
<path d="M33.245 31.573v-31.147h15.468c7.888 0 11.017 3.712 11.017 9.088 0 4.821-3.525 7.125-7.623 7.68v0.128c2.644 0.64 3.834 2.048 4.935 4.821 1.41 3.499 1.63 7.68 3.437 9.173v0.256h-7.051c-1.498-1.451-1.851-6.016-2.644-8.789-0.793-2.859-2.512-3.2-5.729-3.2h-5.641v11.989h-6.169zM39.415 14.635h8.637c3.613 0 5.288-2.048 5.288-4.693 0-2.901-2.071-4.565-5.288-4.565h-8.637v9.259z"></path>
<path d="M63.827 31.573v-31.147h21.989v4.949h-15.82v7.424h14.278v4.949h-14.278v8.747h16.040v5.077h-22.21z"></path>
<path d="M90.321 31.573v-31.147h21.99v4.949h-15.82v7.424h14.278v4.949h-14.278v8.747h16.040v5.077h-22.21z"></path>
<path d="M116.814 31.573v-31.147h7.491l10.664 17.195c3.261 5.205 3.658 6.912 3.658 6.912h0.132l-0.088-24.107h6.17v31.147h-7.536l-11.061-17.707c-2.512-4.011-3.173-6.443-3.173-6.443h-0.088v24.149h-6.169z"></path>
<path d="M149.482 31.573v-6.315h6.434v6.315h-6.434z"></path>
<path d="M160.549 31.573v-31.147h6.169v12.459h14.762v-12.459h6.169v31.147h-6.169v-13.739h-14.762v13.739h-6.169z"></path>
<path d="M190.287 31.573l12.339-31.147h6.698l12.515 31.147h-6.609l-2.601-7.168h-13.352l-2.6 7.168h-6.39zM201.040 19.456h9.827l-2.864-7.68c-1.983-5.675-2.027-6.699-2.027-6.699h-0.088c0 0 0 1.024-1.983 6.699l-2.864 7.68z"></path>
<path d="M224.467 31.573v-31.147h15.467c7.889 0 11.019 3.712 11.019 9.088 0 4.821-3.526 7.125-7.625 7.68v0.128c2.643 0.64 3.834 2.048 4.937 4.821 1.41 3.499 1.63 7.68 3.437 9.173v0.256h-7.051c-1.5-1.451-1.852-6.016-2.645-8.789-0.794-2.859-2.511-3.2-5.728-3.2h-5.641v11.989h-6.17zM230.637 14.635h8.638c3.612 0 5.286-2.048 5.286-4.693 0-2.901-2.069-4.565-5.286-4.565h-8.638v9.259z"></path>
<path d="M261.589 31.573l-11.81-31.147h6.611c0 0 6.389 17.451 7.051 19.584 1.058 3.413 1.542 5.163 1.542 5.163h0.087c-0.043 0 0.442-1.749 1.542-5.163 0.706-2.133 6.831-19.584 6.831-19.584h6.389l-11.369 31.147h-6.876z"></path>
<path d="M282.359 31.573v-31.147h21.99v4.949h-15.821v7.424h14.278v4.949h-14.278v8.747h16.041v5.077h-22.21z"></path>
<path d="M319.887 32c-8.196 0-13.133-4.309-13.133-10.709h7.051c-0.087 3.627 2.381 5.632 6.082 5.632 3.921 0 5.773-1.493 5.773-3.712s-1.587-3.157-7.228-4.651c-5.156-1.365-10.797-2.987-10.797-9.387 0-5.077 4.585-9.173 11.81-9.173 7.447 0 12.207 4.053 12.207 9.771h-6.831c-0.043-3.029-2.159-4.693-5.376-4.693-3.127 0-5.199 1.536-5.199 3.584 0 2.432 1.717 3.2 6.212 4.437 6.654 1.792 12.030 2.517 12.030 9.472 0 5.589-5.244 9.429-12.602 9.429z"></path>
<path d="M342.537 31.573v-26.069h-9.739v-5.077h25.602v5.077h-9.694v26.069h-6.17z"></path>
</symbol>
  </defs>
</svg>
