<svg xmlns="http://www.w3.org/2000/svg" aria-hidden="true" style="position:absolute;width:0;height:0;overflow:hidden">
  <defs>
    <symbol id="icon-close-menu" viewBox="0 0 32 32">
      <path stroke-linecap="round" stroke-linejoin="round" stroke-width="3" d="M24 8 8 24M8 8l16 16"/>
    </symbol>
    <symbol id="icon-logo" viewBox="0 0 32 32">
      <path d="M29.082.314h-4.009c-1.237 0-2.24.983-2.24 2.195v3.929c0 1.212 1.003 2.195 2.24 2.195h4.009c1.237 0 2.24-.983 2.24-2.195V2.509c0-1.212-1.003-2.195-2.24-2.195zM6.73 23.04H2.412C1.08 23.04 0 24.023 0 25.235v3.929c0 1.212 1.08 2.195 2.412 2.195H6.73c1.332 0 2.412-.983 2.412-2.195v-3.929c0-1.212-1.08-2.195-2.412-2.195zM6.25 11.582H2.241c-1.237 0-2.24.983-2.24 2.195v3.929c0 1.212 1.003 2.195 2.24 2.195H6.25c1.237 0 2.24-.983 2.24-2.195v-3.929c0-1.212-1.003-2.195-2.24-2.195zM17.766 22.978h-4.009c-1.237 0-2.24.983-2.24 2.195v3.929c0 1.212 1.003 2.195 2.241 2.195h4.009c1.237 0 2.24-.983 2.24-2.195v-3.929c0-1.212-1.003-2.195-2.24-2.195zM6.25.086H2.241c-1.237 0-2.24.983-2.24 2.195V6.21c0 1.212 1.003 2.195 2.24 2.195H6.25c1.237 0 2.24-.983 2.24-2.195V2.281C8.49 1.069 7.487.086 6.25.086zM18.076 11.697h-4.009c-1.237 0-2.24.983-2.24 2.195v3.929c0 1.212 1.003 2.195 2.24 2.195h4.009c1.237 0 2.24-.983 2.24-2.195v-3.929c0-1.212-1.003-2.195-2.24-2.195zM29.333 22.978h-4.009c-1.237 0-2.24.983-2.24 2.195v3.929c0 1.212 1.003 2.195 2.24 2.195h4.009c1.237 0 2.24-.983 2.24-2.195v-3.929c0-1.212-1.003-2.195-2.24-2.195zM17.591.224h-4.009c-1.237 0-2.24.983-2.24 2.195v3.929c0 1.212 1.003 2.195 2.24 2.195h4.009c1.237 0 2.24-.984 2.24-2.196V2.418c0-1.212-1.003-2.195-2.24-2.195zM29.044 11.926h-4.009c-1.237 0-2.24.983-2.24 2.195v3.929c0 1.212 1.003 2.195 2.24 2.195h4.009c1.237 0 2.24-.983 2.24-2.195v-3.929c0-1.212-1.003-2.195-2.24-2.195z"/>
    </symbol>
    <svg id="logo-text" width="168" height="15" fill="none" xmlns="http://www.w3.org/2000/svg">
  <path d="M7.25 15C2.892 15 0 12.06 0 7.48 0 3 2.85 0 7.147 0c3.615 0 6.156 2.06 6.528 5.16h-2.996c-.289-1.78-1.673-2.78-3.532-2.78-2.603 0-4.152 2.04-4.152 5.1 0 3.36 1.735 5.14 4.255 5.14 2.19 0 3.595-1.2 3.74-3v-.2H6.96V7.18h6.817v1.84C13.654 12.6 11.05 15 7.25 15ZM15.584 14.8V.2h7.25c3.698 0 5.164 1.74 5.164 4.26 0 2.26-1.652 3.34-3.573 3.6v.06c1.239.3 1.797.96 2.313 2.26.661 1.64.765 3.6 1.611 4.3v.12h-3.305c-.702-.68-.867-2.82-1.239-4.12-.372-1.34-1.177-1.5-2.685-1.5h-2.644v5.62h-2.892Zm2.892-7.94h4.048c1.694 0 2.479-.96 2.479-2.2 0-1.36-.97-2.14-2.479-2.14h-4.048v4.34ZM29.919 14.8V.2h10.308v2.32H32.81V6h6.693v2.32H32.81v4.1h7.519v2.38H29.919ZM42.338 14.8V.2h10.307v2.32H45.23V6h6.692v2.32H45.23v4.1h7.519v2.38H42.338ZM54.757 14.8V.2h3.511l5 8.06c1.528 2.44 1.714 3.24 1.714 3.24h.062L65.002.2h2.892v14.6h-3.532l-5.185-8.3C58 4.62 57.69 3.48 57.69 3.48h-.041V14.8h-2.892ZM70.07 14.8v-2.96h3.016v2.96H70.07ZM75.257 14.8V.2h2.892v5.84h6.92V.2h2.892v14.6H85.07V8.36h-6.92v6.44h-2.892ZM89.197 14.8 94.981.2h3.14l5.866 14.6h-3.098l-1.219-3.36h-6.259l-1.219 3.36h-2.995Zm5.04-5.68h4.607L97.5 5.52c-.93-2.66-.95-3.14-.95-3.14h-.041s0 .48-.93 3.14l-1.343 3.6ZM105.219 14.8V.2h7.25c3.698 0 5.165 1.74 5.165 4.26 0 2.26-1.653 3.34-3.574 3.6v.06c1.239.3 1.797.96 2.314 2.26.661 1.64.764 3.6 1.611 4.3v.12h-3.305c-.703-.68-.868-2.82-1.24-4.12-.372-1.34-1.177-1.5-2.685-1.5h-2.644v5.62h-2.892Zm2.892-7.94h4.049c1.693 0 2.478-.96 2.478-2.2 0-1.36-.97-2.14-2.478-2.14h-4.049v4.34ZM122.62 14.8 117.084.2h3.099s2.995 8.18 3.305 9.18c.496 1.6.723 2.42.723 2.42h.041c-.02 0 .207-.82.723-2.42.331-1 3.202-9.18 3.202-9.18h2.995l-5.329 14.6h-3.223ZM132.356 14.8V.2h10.308v2.32h-7.416V6h6.693v2.32h-6.693v4.1h7.519v2.38h-10.411ZM149.947 15c-3.842 0-6.156-2.02-6.156-5.02h3.305c-.041 1.7 1.116 2.64 2.851 2.64 1.838 0 2.706-.7 2.706-1.74s-.744-1.48-3.388-2.18c-2.417-.64-5.061-1.4-5.061-4.4 0-2.38 2.149-4.3 5.536-4.3 3.491 0 5.722 1.9 5.722 4.58h-3.202c-.02-1.42-1.012-2.2-2.52-2.2-1.466 0-2.437.72-2.437 1.68 0 1.14.805 1.5 2.912 2.08 3.119.84 5.639 1.18 5.639 4.44 0 2.62-2.458 4.42-5.907 4.42ZM160.564 14.8V2.58h-4.565V.2H168v2.38h-4.544V14.8h-2.892Z" fill="#FBFBFB"/>
</svg>
    <symbol id="icon-menu" viewBox="0 0 42 32">
      <path stroke-linecap="round" stroke-linejoin="round" stroke-width="4.8" d="M3.733 3.2h34.133M3.733 16H20.8M3.733 28.8h34.133"/>
    </symbol>
  </defs>
</svg>
